<svg xmlns="http://www.w3.org/2000/svg" viewBox="0 0 260 90" role="img" aria-labelledby="title">
  <title id="title">Pujalane logo</title>
  <defs>
    <linearGradient id="petal" x1="0" x2="1" gradientUnits="userSpaceOnUse">
      <stop offset="0" stop-color="#b89658" />
      <stop offset="1" stop-color="#cfa971" />
    </linearGradient>
  </defs>
  <g fill="none" stroke="url(#petal)" stroke-width="3" stroke-linecap="round">
    <path d="M130 36c8-14 18-23 31-27-8 15-9 30 0 46-12-1-21-6-31-19z" />
    <path d="M130 36c-8-14-18-23-31-27 8 15 9 30 0 46 12-1 21-6 31-19z" />
    <path d="M130 36c5-10 11-17 20-20-5 11-6 22 0 33-8 0-14-4-20-13z" />
    <path d="M130 36c-5-10-11-17-20-20 5 11 6 22 0 33 8 0 14-4 20-13z" />
    <path d="M130 36c3-6 7-10 12-12-3 7-3 14 0 21-5 0-9-2-12-9z" />
    <path d="M130 36c-3-6-7-10-12-12 3 7 3 14 0 21 5 0 9-2 12-9z" />
  </g>
  <text
    x="20"
    y="80"
    font-family="'Playfair Display', 'Cinzel', serif"
    font-size="54"
    fill="#b4884b"
    letter-spacing="6"
  >
    PUJALANE
  </text>
</svg>

