<svg xmlns="http://www.w3.org/2000/svg" viewBox="0 0 360 180" role="img" aria-labelledby="logoTitle">
  <title id="logoTitle">SpillBox logo</title>
  <defs>
    <linearGradient id="blue" gradientUnits="userSpaceOnUse" x1="0" x2="1">
      <stop offset="0" stop-color="#001c73" />
      <stop offset="1" stop-color="#1b2d94" />
    </linearGradient>
    <linearGradient id="red" gradientUnits="userSpaceOnUse" x1="0" x2="1">
      <stop offset="0" stop-color="#ff3f1f" />
      <stop offset="1" stop-color="#d82318" />
    </linearGradient>
  </defs>
  <g transform="translate(20 10)">
    <path
      d="M70 27c4.7-4.7 12.3-4.7 17 0l56 56c4.7 4.7 4.7 12.3 0 17l-24 24c-4.7 4.7-12.3 4.7-17 0L46 68c-4.7-4.7-4.7-12.3 0-17z"
      fill="url(#blue)"
      transform="rotate(-45 120 75)"
    />
    <path
      d="M90 42c4.7-4.7 12.3-4.7 17 0l56 56c4.7 4.7 4.7 12.3 0 17l-24 24c-4.7 4.7-12.3 4.7-17 0L66 83c-4.7-4.7-4.7-12.3 0-17z"
      fill="url(#red)"
      transform="rotate(45 140 110)"
    />
  </g>
  <text x="160" y="130" font-family="'Baloo 2', 'Inter', sans-serif" font-weight="600" font-size="72" fill="#f33a1b">
    Spill
  </text>
  <text x="290" y="130" font-family="'Baloo 2', 'Inter', sans-serif" font-weight="600" font-size="72" fill="#10237b">
    Box
  </text>
</svg>

